<svg xmlns:xlink="http://www.w3.org/1999/xlink" version="1.1" class="highcharts-root" style="font-family:&quot;Lucida Grande&quot;, &quot;Lucida Sans Unicode&quot;, Arial, Helvetica, sans-serif;font-size:12px;" xmlns="http://www.w3.org/2000/svg" width="800" height="350" viewBox="0 0 800 350"><desc>Created with Highcharts 8.2.0</desc><defs><clipPath id="highcharts-0dcwlf3-281-"><rect x="0" y="0" width="616" height="202" fill="none"></rect></clipPath></defs><rect fill="#ffffff" class="highcharts-background" x="0" y="0" width="800" height="350" rx="0" ry="0"></rect><rect fill="none" class="highcharts-plot-background" x="66" y="61" width="616" height="202"></rect><g class="highcharts-grid highcharts-xaxis-grid" data-z-index="1"><path fill="none" data-z-index="1" class="highcharts-grid-line" d="M 127.5 61 L 127.5 263" opacity="1"></path><path fill="none" data-z-index="1" class="highcharts-grid-line" d="M 188.5 61 L 188.5 263" opacity="1"></path><path fill="none" data-z-index="1" class="highcharts-grid-line" d="M 250.5 61 L 250.5 263" opacity="1"></path><path fill="none" data-z-index="1" class="highcharts-grid-line" d="M 311.5 61 L 311.5 263" opacity="1"></path><path fill="none" data-z-index="1" class="highcharts-grid-line" d="M 373.5 61 L 373.5 263" opacity="1"></path><path fill="none" data-z-index="1" class="highcharts-grid-line" d="M 435.5 61 L 435.5 263" opacity="1"></path><path fill="none" data-z-index="1" class="highcharts-grid-line" d="M 496.5 61 L 496.5 263" opacity="1"></path><path fill="none" data-z-index="1" class="highcharts-grid-line" d="M 558.5 61 L 558.5 263" opacity="1"></path><path fill="none" data-z-index="1" class="highcharts-grid-line" d="M 619.5 61 L 619.5 263" opacity="1"></path><path fill="none" data-z-index="1" class="highcharts-grid-line" d="M 681.5 61 L 681.5 263" opacity="1"></path><path fill="none" data-z-index="1" class="highcharts-grid-line" d="M 65.5 61 L 65.5 263" opacity="1"></path></g><g class="highcharts-grid highcharts-yaxis-grid" data-z-index="1"><path fill="none" stroke="#e6e6e6" stroke-width="1" data-z-index="1" class="highcharts-grid-line" d="M 66 263.5 L 682 263.5" opacity="1"></path><path fill="none" stroke="#e6e6e6" stroke-width="1" data-z-index="1" class="highcharts-grid-line" d="M 66 223.5 L 682 223.5" opacity="1"></path><path fill="none" stroke="#e6e6e6" stroke-width="1" data-z-index="1" class="highcharts-grid-line" d="M 66 182.5 L 682 182.5" opacity="1"></path><path fill="none" stroke="#e6e6e6" stroke-width="1" data-z-index="1" class="highcharts-grid-line" d="M 66 142.5 L 682 142.5" opacity="1"></path><path fill="none" stroke="#e6e6e6" stroke-width="1" data-z-index="1" class="highcharts-grid-line" d="M 66 101.5 L 682 101.5" opacity="1"></path><path fill="none" stroke="#e6e6e6" stroke-width="1" data-z-index="1" class="highcharts-grid-line" d="M 66 60.5 L 682 60.5" opacity="1"></path></g><rect fill="none" class="highcharts-plot-border" data-z-index="1" x="66" y="61" width="616" height="202"></rect><g class="highcharts-axis highcharts-xaxis" data-z-index="2"><path fill="none" class="highcharts-axis-line" stroke="#ccd6eb" stroke-width="1" data-z-index="7" d="M 66 263.5 L 682 263.5"></path></g><g class="highcharts-axis highcharts-yaxis" data-z-index="2"><text x="23.59375" data-z-index="7" text-anchor="middle" transform="translate(0,0) rotate(270 23.59375 162)" class="highcharts-axis-title" style="color:#666666;fill:#666666;" y="162"><tspan>GB/s</tspan></text><path fill="none" class="highcharts-axis-line" data-z-index="7" d="M 66 61 L 66 263"></path></g><g class="highcharts-series-group" data-z-index="3"><g class="highcharts-series highcharts-series-0 highcharts-column-series highcharts-color-0" data-z-index="0.1" opacity="1" transform="translate(66,61) scale(1 1)" clip-path="url(#highcharts-0dcwlf3-281-)"><rect x="6" y="157" width="12" height="46" fill="#7cb5ec" opacity="1" class="highcharts-point highcharts-color-0"></rect><rect x="68" y="70" width="12" height="133" fill="#7cb5ec" opacity="1" class="highcharts-point highcharts-color-0"></rect><rect x="129" y="98" width="13" height="105" fill="#7cb5ec" opacity="1" class="highcharts-point highcharts-color-0"></rect><rect x="191" y="48" width="12" height="155" fill="#7cb5ec" opacity="1" class="highcharts-point highcharts-color-0"></rect><rect x="253" y="75" width="12" height="128" fill="#7cb5ec" opacity="1" class="highcharts-point highcharts-color-0"></rect><rect x="314" y="151" width="12" height="52" fill="#7cb5ec" opacity="1" class="highcharts-point highcharts-color-0"></rect><rect x="376" y="120" width="12" height="83" fill="#7cb5ec" opacity="1" class="highcharts-point highcharts-color-0"></rect><rect x="437" y="75" width="13" height="128" fill="#7cb5ec" opacity="1" class="highcharts-point highcharts-color-0"></rect><rect x="499" y="46" width="12" height="157" fill="#7cb5ec" opacity="1" class="highcharts-point highcharts-color-0"></rect><rect x="561" y="46" width="12" height="157" fill="#7cb5ec" opacity="1" class="highcharts-point highcharts-color-0"></rect></g><g class="highcharts-markers highcharts-series-0 highcharts-column-series highcharts-color-0" data-z-index="0.1" opacity="1" transform="translate(66,61) scale(1 1)" clip-path="none"></g><g class="highcharts-series highcharts-series-1 highcharts-column-series highcharts-color-1" data-z-index="0.1" opacity="1" transform="translate(66,61) scale(1 1)" clip-path="url(#highcharts-0dcwlf3-281-)"><rect x="18" y="187" width="13" height="16" fill="#434348" opacity="1" class="highcharts-point highcharts-color-1"></rect><rect x="80" y="153" width="12" height="50" fill="#434348" opacity="1" class="highcharts-point highcharts-color-1"></rect><rect x="142" y="171" width="12" height="32" fill="#434348" opacity="1" class="highcharts-point highcharts-color-1"></rect><rect x="203" y="139" width="13" height="64" fill="#434348" opacity="1" class="highcharts-point highcharts-color-1"></rect><rect x="265" y="158" width="12" height="45" fill="#434348" opacity="1" class="highcharts-point highcharts-color-1"></rect><rect x="326" y="184" width="13" height="19" fill="#434348" opacity="1" class="highcharts-point highcharts-color-1"></rect><rect x="388" y="179" width="12" height="24" fill="#434348" opacity="1" class="highcharts-point highcharts-color-1"></rect><rect x="450" y="95" width="12" height="108" fill="#434348" opacity="1" class="highcharts-point highcharts-color-1"></rect><rect x="511" y="142" width="13" height="61" fill="#434348" opacity="1" class="highcharts-point highcharts-color-1"></rect><rect x="573" y="142" width="12" height="61" fill="#434348" opacity="1" class="highcharts-point highcharts-color-1"></rect></g><g class="highcharts-markers highcharts-series-1 highcharts-column-series highcharts-color-1" data-z-index="0.1" opacity="1" transform="translate(66,61) scale(1 1)" clip-path="none"></g><g class="highcharts-series highcharts-series-2 highcharts-column-series highcharts-color-2" data-z-index="0.1" opacity="1" transform="translate(66,61) scale(1 1)" clip-path="url(#highcharts-0dcwlf3-281-)"><rect x="31" y="155" width="12" height="48" fill="#90ed7d" opacity="1" class="highcharts-point highcharts-color-2"></rect><rect x="92" y="124" width="13" height="79" fill="#90ed7d" opacity="1" class="highcharts-point highcharts-color-2"></rect><rect x="154" y="154" width="12" height="49" fill="#90ed7d" opacity="1" class="highcharts-point highcharts-color-2"></rect><rect x="216" y="166" width="12" height="37" fill="#90ed7d" opacity="1" class="highcharts-point highcharts-color-2"></rect><rect x="277" y="172" width="13" height="31" fill="#90ed7d" opacity="1" class="highcharts-point highcharts-color-2"></rect><rect x="339" y="97" width="12" height="106" fill="#90ed7d" opacity="1" class="highcharts-point highcharts-color-2"></rect><rect x="400" y="117" width="13" height="86" fill="#90ed7d" opacity="1" class="highcharts-point highcharts-color-2"></rect><rect x="462" y="172" width="12" height="31" fill="#90ed7d" opacity="1" class="highcharts-point highcharts-color-2"></rect><rect x="524" y="162" width="12" height="41" fill="#90ed7d" opacity="1" class="highcharts-point highcharts-color-2"></rect><rect x="585" y="161" width="13" height="42" fill="#90ed7d" opacity="1" class="highcharts-point highcharts-color-2"></rect></g><g class="highcharts-markers highcharts-series-2 highcharts-column-series highcharts-color-2" data-z-index="0.1" opacity="1" transform="translate(66,61) scale(1 1)" clip-path="none"></g><g class="highcharts-series highcharts-series-3 highcharts-column-series highcharts-color-3" data-z-index="0.1" opacity="1" transform="translate(66,61) scale(1 1)" clip-path="url(#highcharts-0dcwlf3-281-)"><rect x="43" y="201" width="12" height="2" fill="#f7a35c" opacity="1" class="highcharts-point highcharts-color-3"></rect><rect x="105" y="197" width="12" height="6" fill="#f7a35c" opacity="1" class="highcharts-point highcharts-color-3"></rect><rect x="166" y="197" width="13" height="6" fill="#f7a35c" opacity="1" class="highcharts-point highcharts-color-3"></rect><rect x="228" y="175" width="12" height="28" fill="#f7a35c" opacity="1" class="highcharts-point highcharts-color-3"></rect><rect x="290" y="175" width="12" height="28" fill="#f7a35c" opacity="1" class="highcharts-point highcharts-color-3"></rect><rect x="351" y="200" width="12" height="3" fill="#f7a35c" opacity="1" class="highcharts-point highcharts-color-3"></rect><rect x="413" y="199" width="12" height="4" fill="#f7a35c" opacity="1" class="highcharts-point highcharts-color-3"></rect><rect x="474" y="145" width="13" height="58" fill="#f7a35c" opacity="1" class="highcharts-point highcharts-color-3"></rect><rect x="536" y="181" width="12" height="22" fill="#f7a35c" opacity="1" class="highcharts-point highcharts-color-3"></rect><rect x="598" y="181" width="12" height="22" fill="#f7a35c" opacity="1" class="highcharts-point highcharts-color-3"></rect></g><g class="highcharts-markers highcharts-series-3 highcharts-column-series highcharts-color-3" data-z-index="0.1" opacity="1" transform="translate(66,61) scale(1 1)" clip-path="none"></g></g><text x="400" text-anchor="middle" class="highcharts-title" data-z-index="4" style="color:#333333;font-size:18px;fill:#333333;" y="24"><tspan>JSON writer minify</tspan></text><text x="400" text-anchor="middle" class="highcharts-subtitle" data-z-index="4" style="color:#666666;fill:#666666;" y="46"><tspan>gigabytes per second (larger is better)</tspan></text><text x="10" text-anchor="start" class="highcharts-caption" data-z-index="4" style="color:#666666;fill:#666666;" y="347"></text><g class="highcharts-legend" data-z-index="7" transform="translate(694,139)"><rect fill="none" class="highcharts-legend-box" rx="0" ry="0" x="0" y="0" width="95" height="67" visibility="visible"></rect><g data-z-index="1"><g><g class="highcharts-legend-item highcharts-column-series highcharts-color-0 highcharts-series-0" data-z-index="1" transform="translate(8,3)"><text x="21" style="color:#333333;cursor:pointer;font-size:12px;font-weight:bold;fill:#333333;" text-anchor="start" data-z-index="2" y="15"><tspan>yyjson</tspan></text><rect x="2" y="4" width="12" height="12" fill="#7cb5ec" rx="6" ry="6" class="highcharts-point" data-z-index="3"></rect></g><g class="highcharts-legend-item highcharts-column-series highcharts-color-1 highcharts-series-1" data-z-index="1" transform="translate(8,17)"><text x="21" y="15" style="color:#333333;cursor:pointer;font-size:12px;font-weight:bold;fill:#333333;" text-anchor="start" data-z-index="2"><tspan>simdjson</tspan></text><rect x="2" y="4" width="12" height="12" fill="#434348" rx="6" ry="6" class="highcharts-point" data-z-index="3"></rect></g><g class="highcharts-legend-item highcharts-column-series highcharts-color-2 highcharts-series-2" data-z-index="1" transform="translate(8,31)"><text x="21" y="15" style="color:#333333;cursor:pointer;font-size:12px;font-weight:bold;fill:#333333;" text-anchor="start" data-z-index="2"><tspan>rapidjson</tspan></text><rect x="2" y="4" width="12" height="12" fill="#90ed7d" rx="6" ry="6" class="highcharts-point" data-z-index="3"></rect></g><g class="highcharts-legend-item highcharts-column-series highcharts-color-3 highcharts-series-3" data-z-index="1" transform="translate(8,45)"><text x="21" y="15" style="color:#333333;cursor:pointer;font-size:12px;font-weight:bold;fill:#333333;" text-anchor="start" data-z-index="2"><tspan>cjson</tspan></text><rect x="2" y="4" width="12" height="12" fill="#f7a35c" rx="6" ry="6" class="highcharts-point" data-z-index="3"></rect></g></g></g></g><g class="highcharts-axis-labels highcharts-xaxis-labels" data-z-index="7"><text x="99.39272486435068" style="color:#666666;cursor:default;font-size:11px;fill:#666666;" text-anchor="end" transform="translate(0,0) rotate(-45 99.39272486435068 279)" y="279" opacity="1">canada</text><text x="160.99272486435066" style="color:#666666;cursor:default;font-size:11px;fill:#666666;" text-anchor="end" transform="translate(0,0) rotate(-45 160.99272486435066 279)" y="279" opacity="1">citm_catalog</text><text x="222.59272486435069" style="color:#666666;cursor:default;font-size:11px;fill:#666666;" text-anchor="end" transform="translate(0,0) rotate(-45 222.59272486435069 279)" y="279" opacity="1">fgo</text><text x="284.1927248643506" style="color:#666666;cursor:default;font-size:11px;fill:#666666;" text-anchor="end" transform="translate(0,0) rotate(-45 284.1927248643506 279)" y="279" opacity="1">github_events</text><text x="345.79272486435065" style="color:#666666;cursor:default;font-size:11px;fill:#666666;" text-anchor="end" transform="translate(0,0) rotate(-45 345.79272486435065 279)" y="279" opacity="1">gsoc-2018</text><text x="407.39272486435067" style="color:#666666;cursor:default;font-size:11px;fill:#666666;" text-anchor="end" transform="translate(0,0) rotate(-45 407.39272486435067 279)" y="279" opacity="1">lottie</text><text x="468.99272486435063" style="color:#666666;cursor:default;font-size:11px;fill:#666666;" text-anchor="end" transform="translate(0,0) rotate(-45 468.99272486435063 279)" y="279" opacity="1">otfcc</text><text x="530.5927248643507" style="color:#666666;cursor:default;font-size:11px;fill:#666666;" text-anchor="end" transform="translate(0,0) rotate(-45 530.5927248643507 279)" y="279" opacity="1">poet</text><text x="592.1927248643507" style="color:#666666;cursor:default;font-size:11px;fill:#666666;" text-anchor="end" transform="translate(0,0) rotate(-45 592.1927248643507 279)" y="279" opacity="1">twitter</text><text x="653.7927248643507" style="color:#666666;cursor:default;font-size:11px;fill:#666666;" text-anchor="end" transform="translate(0,0) rotate(-45 653.7927248643507 279)" y="279" opacity="1">twitterescaped</text></g><g class="highcharts-axis-labels highcharts-yaxis-labels" data-z-index="7"><text x="51" style="color:#666666;cursor:default;font-size:11px;fill:#666666;" text-anchor="end" transform="translate(0,0)" y="268" opacity="1">0</text><text x="51" style="color:#666666;cursor:default;font-size:11px;fill:#666666;" text-anchor="end" transform="translate(0,0)" y="227" opacity="1">0.5</text><text x="51" style="color:#666666;cursor:default;font-size:11px;fill:#666666;" text-anchor="end" transform="translate(0,0)" y="187" opacity="1">1</text><text x="51" style="color:#666666;cursor:default;font-size:11px;fill:#666666;" text-anchor="end" transform="translate(0,0)" y="146" opacity="1">1.5</text><text x="51" style="color:#666666;cursor:default;font-size:11px;fill:#666666;" text-anchor="end" transform="translate(0,0)" y="106" opacity="1">2</text><text x="51" style="color:#666666;cursor:default;font-size:11px;fill:#666666;" text-anchor="end" transform="translate(0,0)" y="66" opacity="1">2.5</text></g></svg>