<svg xmlns:xlink="http://www.w3.org/1999/xlink" version="1.1" class="highcharts-root" style="font-family:&quot;Lucida Grande&quot;, &quot;Lucida Sans Unicode&quot;, Arial, Helvetica, sans-serif;font-size:12px;" xmlns="http://www.w3.org/2000/svg" width="800" height="350" viewBox="0 0 800 350"><desc>Created with Highcharts 8.2.0</desc><defs><clipPath id="highcharts-r6st4mv-233-"><rect x="0" y="0" width="604" height="202" fill="none"></rect></clipPath></defs><rect fill="#ffffff" class="highcharts-background" x="0" y="0" width="800" height="350" rx="0" ry="0"></rect><rect fill="none" class="highcharts-plot-background" x="66" y="61" width="604" height="202"></rect><g class="highcharts-grid highcharts-xaxis-grid" data-z-index="1"><path fill="none" data-z-index="1" class="highcharts-grid-line" d="M 125.5 61 L 125.5 263" opacity="1"></path><path fill="none" data-z-index="1" class="highcharts-grid-line" d="M 186.5 61 L 186.5 263" opacity="1"></path><path fill="none" data-z-index="1" class="highcharts-grid-line" d="M 246.5 61 L 246.5 263" opacity="1"></path><path fill="none" data-z-index="1" class="highcharts-grid-line" d="M 307.5 61 L 307.5 263" opacity="1"></path><path fill="none" data-z-index="1" class="highcharts-grid-line" d="M 367.5 61 L 367.5 263" opacity="1"></path><path fill="none" data-z-index="1" class="highcharts-grid-line" d="M 427.5 61 L 427.5 263" opacity="1"></path><path fill="none" data-z-index="1" class="highcharts-grid-line" d="M 488.5 61 L 488.5 263" opacity="1"></path><path fill="none" data-z-index="1" class="highcharts-grid-line" d="M 548.5 61 L 548.5 263" opacity="1"></path><path fill="none" data-z-index="1" class="highcharts-grid-line" d="M 609.5 61 L 609.5 263" opacity="1"></path><path fill="none" data-z-index="1" class="highcharts-grid-line" d="M 669.5 61 L 669.5 263" opacity="1"></path><path fill="none" data-z-index="1" class="highcharts-grid-line" d="M 65.5 61 L 65.5 263" opacity="1"></path></g><g class="highcharts-grid highcharts-yaxis-grid" data-z-index="1"><path fill="none" stroke="#e6e6e6" stroke-width="1" data-z-index="1" class="highcharts-grid-line" d="M 66 263.5 L 670 263.5" opacity="1"></path><path fill="none" stroke="#e6e6e6" stroke-width="1" data-z-index="1" class="highcharts-grid-line" d="M 66 213.5 L 670 213.5" opacity="1"></path><path fill="none" stroke="#e6e6e6" stroke-width="1" data-z-index="1" class="highcharts-grid-line" d="M 66 162.5 L 670 162.5" opacity="1"></path><path fill="none" stroke="#e6e6e6" stroke-width="1" data-z-index="1" class="highcharts-grid-line" d="M 66 112.5 L 670 112.5" opacity="1"></path><path fill="none" stroke="#e6e6e6" stroke-width="1" data-z-index="1" class="highcharts-grid-line" d="M 66 60.5 L 670 60.5" opacity="1"></path></g><rect fill="none" class="highcharts-plot-border" data-z-index="1" x="66" y="61" width="604" height="202"></rect><g class="highcharts-axis highcharts-xaxis" data-z-index="2"><path fill="none" class="highcharts-axis-line" stroke="#ccd6eb" stroke-width="1" data-z-index="7" d="M 66 263.5 L 670 263.5"></path></g><g class="highcharts-axis highcharts-yaxis" data-z-index="2"><text x="23.59375" data-z-index="7" text-anchor="middle" transform="translate(0,0) rotate(270 23.59375 162)" class="highcharts-axis-title" style="color:#666666;fill:#666666;" y="162"><tspan>GB/s</tspan></text><path fill="none" class="highcharts-axis-line" data-z-index="7" d="M 66 61 L 66 263"></path></g><g class="highcharts-series-group" data-z-index="3"><g class="highcharts-series highcharts-series-0 highcharts-column-series highcharts-color-0" data-z-index="0.1" opacity="1" transform="translate(66,61) scale(1 1)" clip-path="url(#highcharts-r6st4mv-233-)"><rect x="6" y="146" width="12" height="57" fill="#7cb5ec" opacity="1" class="highcharts-point highcharts-color-0"></rect><rect x="66" y="50" width="13" height="153" fill="#7cb5ec" opacity="1" class="highcharts-point highcharts-color-0"></rect><rect x="127" y="113" width="12" height="90" fill="#7cb5ec" opacity="1" class="highcharts-point highcharts-color-0"></rect><rect x="187" y="65" width="12" height="138" fill="#7cb5ec" opacity="1" class="highcharts-point highcharts-color-0"></rect><rect x="248" y="29" width="12" height="174" fill="#7cb5ec" opacity="1" class="highcharts-point highcharts-color-0"></rect><rect x="308" y="149" width="12" height="54" fill="#7cb5ec" opacity="1" class="highcharts-point highcharts-color-0"></rect><rect x="368" y="132" width="13" height="71" fill="#7cb5ec" opacity="1" class="highcharts-point highcharts-color-0"></rect><rect x="429" y="16" width="12" height="187" fill="#7cb5ec" opacity="1" class="highcharts-point highcharts-color-0"></rect><rect x="489" y="12" width="12" height="191" fill="#7cb5ec" opacity="1" class="highcharts-point highcharts-color-0"></rect><rect x="550" y="11" width="12" height="192" fill="#7cb5ec" opacity="1" class="highcharts-point highcharts-color-0"></rect></g><g class="highcharts-markers highcharts-series-0 highcharts-column-series highcharts-color-0" data-z-index="0.1" opacity="1" transform="translate(66,61) scale(1 1)" clip-path="none"></g><g class="highcharts-series highcharts-series-1 highcharts-column-series highcharts-color-1" data-z-index="0.1" opacity="1" transform="translate(66,61) scale(1 1)" clip-path="url(#highcharts-r6st4mv-233-)"><rect x="18" y="144" width="12" height="59" fill="#434348" opacity="1" class="highcharts-point highcharts-color-1"></rect><rect x="79" y="68" width="12" height="135" fill="#434348" opacity="1" class="highcharts-point highcharts-color-1"></rect><rect x="139" y="136" width="12" height="67" fill="#434348" opacity="1" class="highcharts-point highcharts-color-1"></rect><rect x="199" y="67" width="12" height="136" fill="#434348" opacity="1" class="highcharts-point highcharts-color-1"></rect><rect x="260" y="38" width="12" height="165" fill="#434348" opacity="1" class="highcharts-point highcharts-color-1"></rect><rect x="320" y="141" width="12" height="62" fill="#434348" opacity="1" class="highcharts-point highcharts-color-1"></rect><rect x="381" y="146" width="12" height="57" fill="#434348" opacity="1" class="highcharts-point highcharts-color-1"></rect><rect x="441" y="30" width="12" height="173" fill="#434348" opacity="1" class="highcharts-point highcharts-color-1"></rect><rect x="501" y="34" width="12" height="169" fill="#434348" opacity="1" class="highcharts-point highcharts-color-1"></rect><rect x="562" y="28" width="12" height="175" fill="#434348" opacity="1" class="highcharts-point highcharts-color-1"></rect></g><g class="highcharts-markers highcharts-series-1 highcharts-column-series highcharts-color-1" data-z-index="0.1" opacity="1" transform="translate(66,61) scale(1 1)" clip-path="none"></g><g class="highcharts-series highcharts-series-2 highcharts-column-series highcharts-color-2" data-z-index="0.1" opacity="1" transform="translate(66,61) scale(1 1)" clip-path="url(#highcharts-r6st4mv-233-)"><rect x="30" y="134" width="12" height="69" fill="#90ed7d" opacity="1" class="highcharts-point highcharts-color-2"></rect><rect x="91" y="67" width="12" height="136" fill="#90ed7d" opacity="1" class="highcharts-point highcharts-color-2"></rect><rect x="151" y="141" width="12" height="62" fill="#90ed7d" opacity="1" class="highcharts-point highcharts-color-2"></rect><rect x="211" y="153" width="12" height="50" fill="#90ed7d" opacity="1" class="highcharts-point highcharts-color-2"></rect><rect x="272" y="142" width="12" height="61" fill="#90ed7d" opacity="1" class="highcharts-point highcharts-color-2"></rect><rect x="332" y="71" width="12" height="132" fill="#90ed7d" opacity="1" class="highcharts-point highcharts-color-2"></rect><rect x="393" y="118" width="12" height="85" fill="#90ed7d" opacity="1" class="highcharts-point highcharts-color-2"></rect><rect x="453" y="143" width="12" height="60" fill="#90ed7d" opacity="1" class="highcharts-point highcharts-color-2"></rect><rect x="513" y="126" width="12" height="77" fill="#90ed7d" opacity="1" class="highcharts-point highcharts-color-2"></rect><rect x="574" y="126" width="12" height="77" fill="#90ed7d" opacity="1" class="highcharts-point highcharts-color-2"></rect></g><g class="highcharts-markers highcharts-series-2 highcharts-column-series highcharts-color-2" data-z-index="0.1" opacity="1" transform="translate(66,61) scale(1 1)" clip-path="none"></g><g class="highcharts-series highcharts-series-3 highcharts-column-series highcharts-color-3" data-z-index="0.1" opacity="1" transform="translate(66,61) scale(1 1)" clip-path="url(#highcharts-r6st4mv-233-)"><rect x="42" y="202" width="12" height="1" fill="#f7a35c" opacity="1" class="highcharts-point highcharts-color-3"></rect><rect x="103" y="198" width="12" height="5" fill="#f7a35c" opacity="1" class="highcharts-point highcharts-color-3"></rect><rect x="163" y="199" width="12" height="4" fill="#f7a35c" opacity="1" class="highcharts-point highcharts-color-3"></rect><rect x="223" y="182" width="13" height="21" fill="#f7a35c" opacity="1" class="highcharts-point highcharts-color-3"></rect><rect x="284" y="173" width="12" height="30" fill="#f7a35c" opacity="1" class="highcharts-point highcharts-color-3"></rect><rect x="344" y="201" width="12" height="2" fill="#f7a35c" opacity="1" class="highcharts-point highcharts-color-3"></rect><rect x="405" y="200" width="12" height="3" fill="#f7a35c" opacity="1" class="highcharts-point highcharts-color-3"></rect><rect x="465" y="134" width="12" height="69" fill="#f7a35c" opacity="1" class="highcharts-point highcharts-color-3"></rect><rect x="525" y="184" width="13" height="19" fill="#f7a35c" opacity="1" class="highcharts-point highcharts-color-3"></rect><rect x="586" y="184" width="12" height="19" fill="#f7a35c" opacity="1" class="highcharts-point highcharts-color-3"></rect></g><g class="highcharts-markers highcharts-series-3 highcharts-column-series highcharts-color-3" data-z-index="0.1" opacity="1" transform="translate(66,61) scale(1 1)" clip-path="none"></g></g><text x="400" text-anchor="middle" class="highcharts-title" data-z-index="4" style="color:#333333;font-size:18px;fill:#333333;" y="24"><tspan>JSON writer minify</tspan></text><text x="400" text-anchor="middle" class="highcharts-subtitle" data-z-index="4" style="color:#666666;fill:#666666;" y="46"><tspan>gigabytes per second (larger is better)</tspan></text><text x="10" text-anchor="start" class="highcharts-caption" data-z-index="4" style="color:#666666;fill:#666666;" y="347"></text><g class="highcharts-legend" data-z-index="7" transform="translate(682,139)"><rect fill="none" class="highcharts-legend-box" rx="0" ry="0" x="0" y="0" width="107" height="67" visibility="visible"></rect><g data-z-index="1"><g><g class="highcharts-legend-item highcharts-column-series highcharts-color-0 highcharts-series-0" data-z-index="1" transform="translate(8,3)"><text x="21" style="color:#333333;cursor:pointer;font-size:12px;font-weight:bold;fill:#333333;" text-anchor="start" data-z-index="2" y="15"><tspan>yyjson</tspan></text><rect x="2" y="4" width="12" height="12" fill="#7cb5ec" rx="6" ry="6" class="highcharts-point" data-z-index="3"></rect></g><g class="highcharts-legend-item highcharts-column-series highcharts-color-1 highcharts-series-1" data-z-index="1" transform="translate(8,17)"><text x="21" y="15" style="color:#333333;cursor:pointer;font-size:12px;font-weight:bold;fill:#333333;" text-anchor="start" data-z-index="2"><tspan>yyjson_mut</tspan></text><rect x="2" y="4" width="12" height="12" fill="#434348" rx="6" ry="6" class="highcharts-point" data-z-index="3"></rect></g><g class="highcharts-legend-item highcharts-column-series highcharts-color-2 highcharts-series-2" data-z-index="1" transform="translate(8,31)"><text x="21" y="15" style="color:#333333;cursor:pointer;font-size:12px;font-weight:bold;fill:#333333;" text-anchor="start" data-z-index="2"><tspan>rapidjson</tspan></text><rect x="2" y="4" width="12" height="12" fill="#90ed7d" rx="6" ry="6" class="highcharts-point" data-z-index="3"></rect></g><g class="highcharts-legend-item highcharts-column-series highcharts-color-3 highcharts-series-3" data-z-index="1" transform="translate(8,45)"><text x="21" y="15" style="color:#333333;cursor:pointer;font-size:12px;font-weight:bold;fill:#333333;" text-anchor="start" data-z-index="2"><tspan>cjson</tspan></text><rect x="2" y="4" width="12" height="12" fill="#f7a35c" rx="6" ry="6" class="highcharts-point" data-z-index="3"></rect></g></g></g></g><g class="highcharts-axis-labels highcharts-xaxis-labels" data-z-index="7"><text x="98.79272486435069" style="color:#666666;cursor:default;font-size:11px;fill:#666666;" text-anchor="end" transform="translate(0,0) rotate(-45 98.79272486435069 279)" y="279" opacity="1">canada</text><text x="159.1927248643507" style="color:#666666;cursor:default;font-size:11px;fill:#666666;" text-anchor="end" transform="translate(0,0) rotate(-45 159.1927248643507 279)" y="279" opacity="1">citm_catalog</text><text x="219.59272486435069" style="color:#666666;cursor:default;font-size:11px;fill:#666666;" text-anchor="end" transform="translate(0,0) rotate(-45 219.59272486435069 279)" y="279" opacity="1">fgo</text><text x="279.9927248643507" style="color:#666666;cursor:default;font-size:11px;fill:#666666;" text-anchor="end" transform="translate(0,0) rotate(-45 279.9927248643507 279)" y="279" opacity="1">github_events</text><text x="340.39272486435067" style="color:#666666;cursor:default;font-size:11px;fill:#666666;" text-anchor="end" transform="translate(0,0) rotate(-45 340.39272486435067 279)" y="279" opacity="1">gsoc-2018</text><text x="400.79272486435065" style="color:#666666;cursor:default;font-size:11px;fill:#666666;" text-anchor="end" transform="translate(0,0) rotate(-45 400.79272486435065 279)" y="279" opacity="1">lottie</text><text x="461.1927248643507" style="color:#666666;cursor:default;font-size:11px;fill:#666666;" text-anchor="end" transform="translate(0,0) rotate(-45 461.1927248643507 279)" y="279" opacity="1">otfcc</text><text x="521.5927248643507" style="color:#666666;cursor:default;font-size:11px;fill:#666666;" text-anchor="end" transform="translate(0,0) rotate(-45 521.5927248643507 279)" y="279" opacity="1">poet</text><text x="581.9927248643506" style="color:#666666;cursor:default;font-size:11px;fill:#666666;" text-anchor="end" transform="translate(0,0) rotate(-45 581.9927248643506 279)" y="279" opacity="1">twitter</text><text x="642.3927248643506" style="color:#666666;cursor:default;font-size:11px;fill:#666666;" text-anchor="end" transform="translate(0,0) rotate(-45 642.3927248643506 279)" y="279" opacity="1">twitterescaped</text></g><g class="highcharts-axis-labels highcharts-yaxis-labels" data-z-index="7"><text x="51" style="color:#666666;cursor:default;font-size:11px;fill:#666666;" text-anchor="end" transform="translate(0,0)" y="268" opacity="1">0</text><text x="51" style="color:#666666;cursor:default;font-size:11px;fill:#666666;" text-anchor="end" transform="translate(0,0)" y="217" opacity="1">0.5</text><text x="51" style="color:#666666;cursor:default;font-size:11px;fill:#666666;" text-anchor="end" transform="translate(0,0)" y="167" opacity="1">1</text><text x="51" style="color:#666666;cursor:default;font-size:11px;fill:#666666;" text-anchor="end" transform="translate(0,0)" y="116" opacity="1">1.5</text><text x="51" style="color:#666666;cursor:default;font-size:11px;fill:#666666;" text-anchor="end" transform="translate(0,0)" y="66" opacity="1">2</text></g></svg>