<svg xmlns:xlink="http://www.w3.org/1999/xlink" version="1.1" class="highcharts-root" style="font-family:&quot;Lucida Grande&quot;, &quot;Lucida Sans Unicode&quot;, Arial, Helvetica, sans-serif;font-size:12px;" xmlns="http://www.w3.org/2000/svg" width="800" height="300" viewBox="0 0 800 300"><desc>Created with Highcharts 8.2.0</desc><defs><clipPath id="highcharts-3alranx-200-"><rect x="0" y="0" width="615" height="153" fill="none"></rect></clipPath></defs><rect fill="#ffffff" class="highcharts-background" x="0" y="0" width="800" height="300" rx="0" ry="0"></rect><rect fill="none" class="highcharts-plot-background" x="56" y="60" width="615" height="153"></rect><g class="highcharts-grid highcharts-xaxis-grid" data-z-index="1"><path fill="none" data-z-index="1" class="highcharts-grid-line" d="M 117.5 60 L 117.5 213" opacity="1"></path><path fill="none" data-z-index="1" class="highcharts-grid-line" d="M 178.5 60 L 178.5 213" opacity="1"></path><path fill="none" data-z-index="1" class="highcharts-grid-line" d="M 240.5 60 L 240.5 213" opacity="1"></path><path fill="none" data-z-index="1" class="highcharts-grid-line" d="M 301.5 60 L 301.5 213" opacity="1"></path><path fill="none" data-z-index="1" class="highcharts-grid-line" d="M 363.5 60 L 363.5 213" opacity="1"></path><path fill="none" data-z-index="1" class="highcharts-grid-line" d="M 424.5 60 L 424.5 213" opacity="1"></path><path fill="none" data-z-index="1" class="highcharts-grid-line" d="M 486.5 60 L 486.5 213" opacity="1"></path><path fill="none" data-z-index="1" class="highcharts-grid-line" d="M 547.5 60 L 547.5 213" opacity="1"></path><path fill="none" data-z-index="1" class="highcharts-grid-line" d="M 609.5 60 L 609.5 213" opacity="1"></path><path fill="none" data-z-index="1" class="highcharts-grid-line" d="M 670.5 60 L 670.5 213" opacity="1"></path><path fill="none" data-z-index="1" class="highcharts-grid-line" d="M 55.5 60 L 55.5 213" opacity="1"></path></g><g class="highcharts-grid highcharts-yaxis-grid" data-z-index="1"><path fill="none" stroke="#e6e6e6" stroke-width="1" data-z-index="1" class="highcharts-grid-line" d="M 56 213.5 L 671 213.5" opacity="1"></path><path fill="none" stroke="#e6e6e6" stroke-width="1" data-z-index="1" class="highcharts-grid-line" d="M 56 175.5 L 671 175.5" opacity="1"></path><path fill="none" stroke="#e6e6e6" stroke-width="1" data-z-index="1" class="highcharts-grid-line" d="M 56 137.5 L 671 137.5" opacity="1"></path><path fill="none" stroke="#e6e6e6" stroke-width="1" data-z-index="1" class="highcharts-grid-line" d="M 56 98.5 L 671 98.5" opacity="1"></path><path fill="none" stroke="#e6e6e6" stroke-width="1" data-z-index="1" class="highcharts-grid-line" d="M 56 59.5 L 671 59.5" opacity="1"></path></g><rect fill="none" class="highcharts-plot-border" data-z-index="1" x="56" y="60" width="615" height="153"></rect><g class="highcharts-axis highcharts-xaxis" data-z-index="2"><path fill="none" class="highcharts-axis-line" stroke="#ccd6eb" stroke-width="1" data-z-index="7" d="M 56 213.5 L 671 213.5"></path></g><g class="highcharts-axis highcharts-yaxis" data-z-index="2"><text x="24.03125" data-z-index="7" text-anchor="middle" transform="translate(0,0) rotate(270 24.03125 136.5)" class="highcharts-axis-title" style="color:#666666;fill:#666666;" y="136.5"><tspan>GB/s</tspan></text><path fill="none" class="highcharts-axis-line" data-z-index="7" d="M 56 60 L 56 213"></path></g><g class="highcharts-series-group" data-z-index="3"><g class="highcharts-series highcharts-series-0 highcharts-column-series highcharts-color-0" data-z-index="0.1" opacity="1" transform="translate(56,60) scale(1 1)" clip-path="url(#highcharts-3alranx-200-)"><rect x="6" y="91" width="12" height="63" fill="#7cb5ec" opacity="1" class="highcharts-point highcharts-color-0"></rect><rect x="68" y="17" width="12" height="137" fill="#7cb5ec" opacity="1" class="highcharts-point highcharts-color-0"></rect><rect x="129" y="91" width="12" height="63" fill="#7cb5ec" opacity="1" class="highcharts-point highcharts-color-0"></rect><rect x="191" y="14" width="12" height="140" fill="#7cb5ec" opacity="1" class="highcharts-point highcharts-color-0"></rect><rect x="252" y="29" width="12" height="125" fill="#7cb5ec" opacity="1" class="highcharts-point highcharts-color-0"></rect><rect x="314" y="114" width="12" height="40" fill="#7cb5ec" opacity="1" class="highcharts-point highcharts-color-0"></rect><rect x="375" y="111" width="12" height="43" fill="#7cb5ec" opacity="1" class="highcharts-point highcharts-color-0"></rect><rect x="437" y="-3" width="12" height="157" fill="#7cb5ec" opacity="1" class="highcharts-point highcharts-color-0"></rect><rect x="498" y="20" width="12" height="134" fill="#7cb5ec" opacity="1" class="highcharts-point highcharts-color-0"></rect><rect x="560" y="61" width="12" height="93" fill="#7cb5ec" opacity="1" class="highcharts-point highcharts-color-0"></rect></g><g class="highcharts-markers highcharts-series-0 highcharts-column-series highcharts-color-0" data-z-index="0.1" opacity="1" transform="translate(56,60) scale(1 1)" clip-path="none"></g><g class="highcharts-series highcharts-series-1 highcharts-column-series highcharts-color-1" data-z-index="0.1" opacity="1" transform="translate(56,60) scale(1 1)" clip-path="url(#highcharts-3alranx-200-)"><rect x="18" y="122" width="13" height="32" fill="#434348" opacity="1" class="highcharts-point highcharts-color-1"></rect><rect x="80" y="60" width="12" height="94" fill="#434348" opacity="1" class="highcharts-point highcharts-color-1"></rect><rect x="141" y="109" width="13" height="45" fill="#434348" opacity="1" class="highcharts-point highcharts-color-1"></rect><rect x="203" y="59" width="12" height="95" fill="#434348" opacity="1" class="highcharts-point highcharts-color-1"></rect><rect x="264" y="59" width="13" height="95" fill="#434348" opacity="1" class="highcharts-point highcharts-color-1"></rect><rect x="326" y="124" width="12" height="30" fill="#434348" opacity="1" class="highcharts-point highcharts-color-1"></rect><rect x="387" y="122" width="13" height="32" fill="#434348" opacity="1" class="highcharts-point highcharts-color-1"></rect><rect x="449" y="48" width="12" height="106" fill="#434348" opacity="1" class="highcharts-point highcharts-color-1"></rect><rect x="510" y="62" width="13" height="92" fill="#434348" opacity="1" class="highcharts-point highcharts-color-1"></rect><rect x="572" y="85" width="12" height="69" fill="#434348" opacity="1" class="highcharts-point highcharts-color-1"></rect></g><g class="highcharts-markers highcharts-series-1 highcharts-column-series highcharts-color-1" data-z-index="0.1" opacity="1" transform="translate(56,60) scale(1 1)" clip-path="none"></g><g class="highcharts-series highcharts-series-2 highcharts-column-series highcharts-color-2" data-z-index="0.1" opacity="1" transform="translate(56,60) scale(1 1)" clip-path="url(#highcharts-3alranx-200-)"><rect x="31" y="122" width="12" height="32" fill="#90ed7d" opacity="1" class="highcharts-point highcharts-color-2"></rect><rect x="92" y="63" width="13" height="91" fill="#90ed7d" opacity="1" class="highcharts-point highcharts-color-2"></rect><rect x="154" y="115" width="12" height="39" fill="#90ed7d" opacity="1" class="highcharts-point highcharts-color-2"></rect><rect x="215" y="67" width="13" height="87" fill="#90ed7d" opacity="1" class="highcharts-point highcharts-color-2"></rect><rect x="277" y="56" width="12" height="98" fill="#90ed7d" opacity="1" class="highcharts-point highcharts-color-2"></rect><rect x="338" y="130" width="13" height="24" fill="#90ed7d" opacity="1" class="highcharts-point highcharts-color-2"></rect><rect x="400" y="130" width="12" height="24" fill="#90ed7d" opacity="1" class="highcharts-point highcharts-color-2"></rect><rect x="461" y="75" width="13" height="79" fill="#90ed7d" opacity="1" class="highcharts-point highcharts-color-2"></rect><rect x="523" y="69" width="12" height="85" fill="#90ed7d" opacity="1" class="highcharts-point highcharts-color-2"></rect><rect x="584" y="116" width="13" height="38" fill="#90ed7d" opacity="1" class="highcharts-point highcharts-color-2"></rect></g><g class="highcharts-markers highcharts-series-2 highcharts-column-series highcharts-color-2" data-z-index="0.1" opacity="1" transform="translate(56,60) scale(1 1)" clip-path="none"></g><g class="highcharts-series highcharts-series-3 highcharts-column-series highcharts-color-3" data-z-index="0.1" opacity="1" transform="translate(56,60) scale(1 1)" clip-path="url(#highcharts-3alranx-200-)"><rect x="43" y="146" width="12" height="8" fill="#f7a35c" opacity="1" class="highcharts-point highcharts-color-3"></rect><rect x="105" y="129" width="12" height="25" fill="#f7a35c" opacity="1" class="highcharts-point highcharts-color-3"></rect><rect x="166" y="146" width="12" height="8" fill="#f7a35c" opacity="1" class="highcharts-point highcharts-color-3"></rect><rect x="228" y="144" width="12" height="10" fill="#f7a35c" opacity="1" class="highcharts-point highcharts-color-3"></rect><rect x="289" y="144" width="12" height="10" fill="#f7a35c" opacity="1" class="highcharts-point highcharts-color-3"></rect><rect x="351" y="147" width="12" height="7" fill="#f7a35c" opacity="1" class="highcharts-point highcharts-color-3"></rect><rect x="412" y="146" width="12" height="8" fill="#f7a35c" opacity="1" class="highcharts-point highcharts-color-3"></rect><rect x="474" y="142" width="12" height="12" fill="#f7a35c" opacity="1" class="highcharts-point highcharts-color-3"></rect><rect x="535" y="143" width="12" height="11" fill="#f7a35c" opacity="1" class="highcharts-point highcharts-color-3"></rect><rect x="597" y="144" width="12" height="10" fill="#f7a35c" opacity="1" class="highcharts-point highcharts-color-3"></rect></g><g class="highcharts-markers highcharts-series-3 highcharts-column-series highcharts-color-3" data-z-index="0.1" opacity="1" transform="translate(56,60) scale(1 1)" clip-path="none"></g></g><text x="400" text-anchor="middle" class="highcharts-title" data-z-index="4" style="color:#333333;font-size:18px;fill:#333333;" y="24"><tspan>JSON reader</tspan></text><text x="400" text-anchor="middle" class="highcharts-subtitle" data-z-index="4" style="color:#666666;fill:#666666;" y="45"><tspan>gigabytes per second (larger is better)</tspan></text><text x="10" text-anchor="start" class="highcharts-caption" data-z-index="4" style="color:#666666;fill:#666666;" y="297"></text><g class="highcharts-legend" data-z-index="7" transform="translate(683,114)"><rect fill="none" class="highcharts-legend-box" rx="0" ry="0" x="0" y="0" width="107" height="67" visibility="visible"></rect><g data-z-index="1"><g><g class="highcharts-legend-item highcharts-column-series highcharts-color-0 highcharts-series-0" data-z-index="1" transform="translate(8,3)"><text x="21" style="color:#333333;cursor:pointer;font-size:12px;font-weight:bold;fill:#333333;" text-anchor="start" data-z-index="2" y="15"><tspan>yyjson_fast</tspan></text><rect x="2" y="4" width="12" height="12" fill="#7cb5ec" rx="6" ry="6" class="highcharts-point" data-z-index="3"></rect></g><g class="highcharts-legend-item highcharts-column-series highcharts-color-1 highcharts-series-1" data-z-index="1" transform="translate(8,17)"><text x="21" y="15" style="color:#333333;cursor:pointer;font-size:12px;font-weight:bold;fill:#333333;" text-anchor="start" data-z-index="2"><tspan>yyjson</tspan></text><rect x="2" y="4" width="12" height="12" fill="#434348" rx="6" ry="6" class="highcharts-point" data-z-index="3"></rect></g><g class="highcharts-legend-item highcharts-column-series highcharts-color-2 highcharts-series-2" data-z-index="1" transform="translate(8,31)"><text x="21" y="15" style="color:#333333;cursor:pointer;font-size:12px;font-weight:bold;fill:#333333;" text-anchor="start" data-z-index="2"><tspan>simdjson</tspan></text><rect x="2" y="4" width="12" height="12" fill="#90ed7d" rx="6" ry="6" class="highcharts-point" data-z-index="3"></rect></g><g class="highcharts-legend-item highcharts-column-series highcharts-color-3 highcharts-series-3" data-z-index="1" transform="translate(8,45)"><text x="21" y="15" style="color:#333333;cursor:pointer;font-size:12px;font-weight:bold;fill:#333333;" text-anchor="start" data-z-index="2"><tspan>rapidjson</tspan></text><rect x="2" y="4" width="12" height="12" fill="#f7a35c" rx="6" ry="6" class="highcharts-point" data-z-index="3"></rect></g></g></g></g><g class="highcharts-axis-labels highcharts-xaxis-labels" data-z-index="7"><text x="89.34272486435067" style="color:#666666;cursor:default;font-size:11px;fill:#666666;" text-anchor="end" transform="translate(0,0) rotate(-45 89.34272486435067 229)" y="229" opacity="1">canada</text><text x="150.84272486435069" style="color:#666666;cursor:default;font-size:11px;fill:#666666;" text-anchor="end" transform="translate(0,0) rotate(-45 150.84272486435069 229)" y="229" opacity="1">citm_catalog</text><text x="212.34272486435069" style="color:#666666;cursor:default;font-size:11px;fill:#666666;" text-anchor="end" transform="translate(0,0) rotate(-45 212.34272486435069 229)" y="229" opacity="1">fgo</text><text x="273.84272486435066" style="color:#666666;cursor:default;font-size:11px;fill:#666666;" text-anchor="end" transform="translate(0,0) rotate(-45 273.84272486435066 229)" y="229" opacity="1">github_events</text><text x="335.34272486435066" style="color:#666666;cursor:default;font-size:11px;fill:#666666;" text-anchor="end" transform="translate(0,0) rotate(-45 335.34272486435066 229)" y="229" opacity="1">gsoc-2018</text><text x="396.84272486435066" style="color:#666666;cursor:default;font-size:11px;fill:#666666;" text-anchor="end" transform="translate(0,0) rotate(-45 396.84272486435066 229)" y="229" opacity="1">lottie</text><text x="458.34272486435066" style="color:#666666;cursor:default;font-size:11px;fill:#666666;" text-anchor="end" transform="translate(0,0) rotate(-45 458.34272486435066 229)" y="229" opacity="1">otfcc</text><text x="519.8427248643507" style="color:#666666;cursor:default;font-size:11px;fill:#666666;" text-anchor="end" transform="translate(0,0) rotate(-45 519.8427248643507 229)" y="229" opacity="1">poet</text><text x="581.3427248643507" style="color:#666666;cursor:default;font-size:11px;fill:#666666;" text-anchor="end" transform="translate(0,0) rotate(-45 581.3427248643507 229)" y="229" opacity="1">twitter</text><text x="642.8427248643507" style="color:#666666;cursor:default;font-size:11px;fill:#666666;" text-anchor="end" transform="translate(0,0) rotate(-45 642.8427248643507 229)" y="229" opacity="1">twitterescaped</text></g><g class="highcharts-axis-labels highcharts-yaxis-labels" data-z-index="7"><text x="41" style="color:#666666;cursor:default;font-size:11px;fill:#666666;" text-anchor="end" transform="translate(0,0)" y="218" opacity="1">0</text><text x="41" style="color:#666666;cursor:default;font-size:11px;fill:#666666;" text-anchor="end" transform="translate(0,0)" y="179" opacity="1">1</text><text x="41" style="color:#666666;cursor:default;font-size:11px;fill:#666666;" text-anchor="end" transform="translate(0,0)" y="141" opacity="1">2</text><text x="41" style="color:#666666;cursor:default;font-size:11px;fill:#666666;" text-anchor="end" transform="translate(0,0)" y="103" opacity="1">3</text><text x="41" style="color:#666666;cursor:default;font-size:11px;fill:#666666;" text-anchor="end" transform="translate(0,0)" y="65" opacity="1">4</text></g></svg>