<svg xmlns:xlink="http://www.w3.org/1999/xlink" version="1.1" class="highcharts-root" style="font-family:&quot;Lucida Grande&quot;, &quot;Lucida Sans Unicode&quot;, Arial, Helvetica, sans-serif;font-size:12px;" xmlns="http://www.w3.org/2000/svg" width="800" height="350" viewBox="0 0 800 350"><desc>Created with Highcharts 8.2.0</desc><defs><clipPath id="highcharts-bjb1b1s-281-"><rect x="0" y="0" width="614" height="202" fill="none"></rect></clipPath></defs><rect fill="#ffffff" class="highcharts-background" x="0" y="0" width="800" height="350" rx="0" ry="0"></rect><rect fill="none" class="highcharts-plot-background" x="56" y="61" width="614" height="202"></rect><g class="highcharts-grid highcharts-xaxis-grid" data-z-index="1"><path fill="none" data-z-index="1" class="highcharts-grid-line" d="M 116.5 61 L 116.5 263" opacity="1"></path><path fill="none" data-z-index="1" class="highcharts-grid-line" d="M 178.5 61 L 178.5 263" opacity="1"></path><path fill="none" data-z-index="1" class="highcharts-grid-line" d="M 239.5 61 L 239.5 263" opacity="1"></path><path fill="none" data-z-index="1" class="highcharts-grid-line" d="M 301.5 61 L 301.5 263" opacity="1"></path><path fill="none" data-z-index="1" class="highcharts-grid-line" d="M 362.5 61 L 362.5 263" opacity="1"></path><path fill="none" data-z-index="1" class="highcharts-grid-line" d="M 423.5 61 L 423.5 263" opacity="1"></path><path fill="none" data-z-index="1" class="highcharts-grid-line" d="M 485.5 61 L 485.5 263" opacity="1"></path><path fill="none" data-z-index="1" class="highcharts-grid-line" d="M 546.5 61 L 546.5 263" opacity="1"></path><path fill="none" data-z-index="1" class="highcharts-grid-line" d="M 608.5 61 L 608.5 263" opacity="1"></path><path fill="none" data-z-index="1" class="highcharts-grid-line" d="M 669.5 61 L 669.5 263" opacity="1"></path><path fill="none" data-z-index="1" class="highcharts-grid-line" d="M 55.5 61 L 55.5 263" opacity="1"></path></g><g class="highcharts-grid highcharts-yaxis-grid" data-z-index="1"><path fill="none" stroke="#e6e6e6" stroke-width="1" data-z-index="1" class="highcharts-grid-line" d="M 56 263.5 L 670 263.5" opacity="1"></path><path fill="none" stroke="#e6e6e6" stroke-width="1" data-z-index="1" class="highcharts-grid-line" d="M 56 196.5 L 670 196.5" opacity="1"></path><path fill="none" stroke="#e6e6e6" stroke-width="1" data-z-index="1" class="highcharts-grid-line" d="M 56 128.5 L 670 128.5" opacity="1"></path><path fill="none" stroke="#e6e6e6" stroke-width="1" data-z-index="1" class="highcharts-grid-line" d="M 56 60.5 L 670 60.5" opacity="1"></path></g><rect fill="none" class="highcharts-plot-border" data-z-index="1" x="56" y="61" width="614" height="202"></rect><g class="highcharts-axis highcharts-xaxis" data-z-index="2"><path fill="none" class="highcharts-axis-line" stroke="#ccd6eb" stroke-width="1" data-z-index="7" d="M 56 263.5 L 670 263.5"></path></g><g class="highcharts-axis highcharts-yaxis" data-z-index="2"><text x="24.03125" data-z-index="7" text-anchor="middle" transform="translate(0,0) rotate(270 24.03125 162)" class="highcharts-axis-title" style="color:#666666;fill:#666666;" y="162"><tspan>GB/s</tspan></text><path fill="none" class="highcharts-axis-line" data-z-index="7" d="M 56 61 L 56 263"></path></g><g class="highcharts-series-group" data-z-index="3"><g class="highcharts-series highcharts-series-0 highcharts-column-series highcharts-color-0" data-z-index="0.1" opacity="1" transform="translate(56,61) scale(1 1)" clip-path="url(#highcharts-bjb1b1s-281-)"><rect x="6" y="102" width="12" height="101" fill="#7cb5ec" opacity="1" class="highcharts-point highcharts-color-0"></rect><rect x="68" y="21" width="12" height="182" fill="#7cb5ec" opacity="1" class="highcharts-point highcharts-color-0"></rect><rect x="129" y="100" width="12" height="103" fill="#7cb5ec" opacity="1" class="highcharts-point highcharts-color-0"></rect><rect x="190" y="62" width="13" height="141" fill="#7cb5ec" opacity="1" class="highcharts-point highcharts-color-0"></rect><rect x="252" y="96" width="12" height="107" fill="#7cb5ec" opacity="1" class="highcharts-point highcharts-color-0"></rect><rect x="313" y="21" width="12" height="182" fill="#7cb5ec" opacity="1" class="highcharts-point highcharts-color-0"></rect><rect x="375" y="70" width="12" height="133" fill="#7cb5ec" opacity="1" class="highcharts-point highcharts-color-0"></rect><rect x="436" y="97" width="12" height="106" fill="#7cb5ec" opacity="1" class="highcharts-point highcharts-color-0"></rect><rect x="497" y="45" width="13" height="158" fill="#7cb5ec" opacity="1" class="highcharts-point highcharts-color-0"></rect><rect x="559" y="46" width="12" height="157" fill="#7cb5ec" opacity="1" class="highcharts-point highcharts-color-0"></rect></g><g class="highcharts-markers highcharts-series-0 highcharts-column-series highcharts-color-0" data-z-index="0.1" opacity="1" transform="translate(56,61) scale(1 1)" clip-path="none"></g><g class="highcharts-series highcharts-series-1 highcharts-column-series highcharts-color-1" data-z-index="0.1" opacity="1" transform="translate(56,61) scale(1 1)" clip-path="url(#highcharts-bjb1b1s-281-)"><rect x="18" y="167" width="13" height="36" fill="#434348" opacity="1" class="highcharts-point highcharts-color-1"></rect><rect x="80" y="60" width="12" height="143" fill="#434348" opacity="1" class="highcharts-point highcharts-color-1"></rect><rect x="141" y="104" width="13" height="99" fill="#434348" opacity="1" class="highcharts-point highcharts-color-1"></rect><rect x="203" y="77" width="12" height="126" fill="#434348" opacity="1" class="highcharts-point highcharts-color-1"></rect><rect x="264" y="98" width="12" height="105" fill="#434348" opacity="1" class="highcharts-point highcharts-color-1"></rect><rect x="325" y="155" width="13" height="48" fill="#434348" opacity="1" class="highcharts-point highcharts-color-1"></rect><rect x="387" y="81" width="12" height="122" fill="#434348" opacity="1" class="highcharts-point highcharts-color-1"></rect><rect x="448" y="97" width="13" height="106" fill="#434348" opacity="1" class="highcharts-point highcharts-color-1"></rect><rect x="510" y="83" width="12" height="120" fill="#434348" opacity="1" class="highcharts-point highcharts-color-1"></rect><rect x="571" y="67" width="12" height="136" fill="#434348" opacity="1" class="highcharts-point highcharts-color-1"></rect></g><g class="highcharts-markers highcharts-series-1 highcharts-column-series highcharts-color-1" data-z-index="0.1" opacity="1" transform="translate(56,61) scale(1 1)" clip-path="none"></g><g class="highcharts-series highcharts-series-2 highcharts-column-series highcharts-color-2" data-z-index="0.1" opacity="1" transform="translate(56,61) scale(1 1)" clip-path="url(#highcharts-bjb1b1s-281-)"><rect x="31" y="191" width="12" height="12" fill="#90ed7d" opacity="1" class="highcharts-point highcharts-color-2"></rect><rect x="92" y="176" width="12" height="27" fill="#90ed7d" opacity="1" class="highcharts-point highcharts-color-2"></rect><rect x="154" y="180" width="12" height="23" fill="#90ed7d" opacity="1" class="highcharts-point highcharts-color-2"></rect><rect x="215" y="178" width="12" height="25" fill="#90ed7d" opacity="1" class="highcharts-point highcharts-color-2"></rect><rect x="276" y="179" width="13" height="24" fill="#90ed7d" opacity="1" class="highcharts-point highcharts-color-2"></rect><rect x="338" y="189" width="12" height="14" fill="#90ed7d" opacity="1" class="highcharts-point highcharts-color-2"></rect><rect x="399" y="181" width="12" height="22" fill="#90ed7d" opacity="1" class="highcharts-point highcharts-color-2"></rect><rect x="461" y="179" width="12" height="24" fill="#90ed7d" opacity="1" class="highcharts-point highcharts-color-2"></rect><rect x="522" y="180" width="12" height="23" fill="#90ed7d" opacity="1" class="highcharts-point highcharts-color-2"></rect><rect x="583" y="179" width="13" height="24" fill="#90ed7d" opacity="1" class="highcharts-point highcharts-color-2"></rect></g><g class="highcharts-markers highcharts-series-2 highcharts-column-series highcharts-color-2" data-z-index="0.1" opacity="1" transform="translate(56,61) scale(1 1)" clip-path="none"></g><g class="highcharts-series highcharts-series-3 highcharts-column-series highcharts-color-3" data-z-index="0.1" opacity="1" transform="translate(56,61) scale(1 1)" clip-path="url(#highcharts-bjb1b1s-281-)"><rect x="43" y="202" width="12" height="1" fill="#f7a35c" opacity="1" class="highcharts-point highcharts-color-3"></rect><rect x="104" y="195" width="13" height="8" fill="#f7a35c" opacity="1" class="highcharts-point highcharts-color-3"></rect><rect x="166" y="197" width="12" height="6" fill="#f7a35c" opacity="1" class="highcharts-point highcharts-color-3"></rect><rect x="227" y="178" width="12" height="25" fill="#f7a35c" opacity="1" class="highcharts-point highcharts-color-3"></rect><rect x="289" y="180" width="12" height="23" fill="#f7a35c" opacity="1" class="highcharts-point highcharts-color-3"></rect><rect x="350" y="198" width="12" height="5" fill="#f7a35c" opacity="1" class="highcharts-point highcharts-color-3"></rect><rect x="411" y="196" width="13" height="7" fill="#f7a35c" opacity="1" class="highcharts-point highcharts-color-3"></rect><rect x="473" y="153" width="12" height="50" fill="#f7a35c" opacity="1" class="highcharts-point highcharts-color-3"></rect><rect x="534" y="183" width="12" height="20" fill="#f7a35c" opacity="1" class="highcharts-point highcharts-color-3"></rect><rect x="596" y="183" width="12" height="20" fill="#f7a35c" opacity="1" class="highcharts-point highcharts-color-3"></rect></g><g class="highcharts-markers highcharts-series-3 highcharts-column-series highcharts-color-3" data-z-index="0.1" opacity="1" transform="translate(56,61) scale(1 1)" clip-path="none"></g></g><text x="400" text-anchor="middle" class="highcharts-title" data-z-index="4" style="color:#333333;font-size:18px;fill:#333333;" y="24"><tspan>JSON writer pretty</tspan></text><text x="400" text-anchor="middle" class="highcharts-subtitle" data-z-index="4" style="color:#666666;fill:#666666;" y="46"><tspan>gigabytes per second (larger is better)</tspan></text><text x="10" text-anchor="start" class="highcharts-caption" data-z-index="4" style="color:#666666;fill:#666666;" y="347"></text><g class="highcharts-legend" data-z-index="7" transform="translate(682,139)"><rect fill="none" class="highcharts-legend-box" rx="0" ry="0" x="0" y="0" width="107" height="67" visibility="visible"></rect><g data-z-index="1"><g><g class="highcharts-legend-item highcharts-column-series highcharts-color-0 highcharts-series-0" data-z-index="1" transform="translate(8,3)"><text x="21" style="color:#333333;cursor:pointer;font-size:12px;font-weight:bold;fill:#333333;" text-anchor="start" data-z-index="2" y="15"><tspan>yyjson</tspan></text><rect x="2" y="4" width="12" height="12" fill="#7cb5ec" rx="6" ry="6" class="highcharts-point" data-z-index="3"></rect></g><g class="highcharts-legend-item highcharts-column-series highcharts-color-1 highcharts-series-1" data-z-index="1" transform="translate(8,17)"><text x="21" y="15" style="color:#333333;cursor:pointer;font-size:12px;font-weight:bold;fill:#333333;" text-anchor="start" data-z-index="2"><tspan>yyjson_mut</tspan></text><rect x="2" y="4" width="12" height="12" fill="#434348" rx="6" ry="6" class="highcharts-point" data-z-index="3"></rect></g><g class="highcharts-legend-item highcharts-column-series highcharts-color-2 highcharts-series-2" data-z-index="1" transform="translate(8,31)"><text x="21" y="15" style="color:#333333;cursor:pointer;font-size:12px;font-weight:bold;fill:#333333;" text-anchor="start" data-z-index="2"><tspan>rapidjson</tspan></text><rect x="2" y="4" width="12" height="12" fill="#90ed7d" rx="6" ry="6" class="highcharts-point" data-z-index="3"></rect></g><g class="highcharts-legend-item highcharts-column-series highcharts-color-3 highcharts-series-3" data-z-index="1" transform="translate(8,45)"><text x="21" y="15" style="color:#333333;cursor:pointer;font-size:12px;font-weight:bold;fill:#333333;" text-anchor="start" data-z-index="2"><tspan>cjson</tspan></text><rect x="2" y="4" width="12" height="12" fill="#f7a35c" rx="6" ry="6" class="highcharts-point" data-z-index="3"></rect></g></g></g></g><g class="highcharts-axis-labels highcharts-xaxis-labels" data-z-index="7"><text x="89.29272486435067" style="color:#666666;cursor:default;font-size:11px;fill:#666666;" text-anchor="end" transform="translate(0,0) rotate(-45 89.29272486435067 279)" y="279" opacity="1">canada</text><text x="150.6927248643507" style="color:#666666;cursor:default;font-size:11px;fill:#666666;" text-anchor="end" transform="translate(0,0) rotate(-45 150.6927248643507 279)" y="279" opacity="1">citm_catalog</text><text x="212.09272486435069" style="color:#666666;cursor:default;font-size:11px;fill:#666666;" text-anchor="end" transform="translate(0,0) rotate(-45 212.09272486435069 279)" y="279" opacity="1">fgo</text><text x="273.4927248643507" style="color:#666666;cursor:default;font-size:11px;fill:#666666;" text-anchor="end" transform="translate(0,0) rotate(-45 273.4927248643507 279)" y="279" opacity="1">github_events</text><text x="334.89272486435067" style="color:#666666;cursor:default;font-size:11px;fill:#666666;" text-anchor="end" transform="translate(0,0) rotate(-45 334.89272486435067 279)" y="279" opacity="1">gsoc-2018</text><text x="396.29272486435065" style="color:#666666;cursor:default;font-size:11px;fill:#666666;" text-anchor="end" transform="translate(0,0) rotate(-45 396.29272486435065 279)" y="279" opacity="1">lottie</text><text x="457.6927248643507" style="color:#666666;cursor:default;font-size:11px;fill:#666666;" text-anchor="end" transform="translate(0,0) rotate(-45 457.6927248643507 279)" y="279" opacity="1">otfcc</text><text x="519.0927248643507" style="color:#666666;cursor:default;font-size:11px;fill:#666666;" text-anchor="end" transform="translate(0,0) rotate(-45 519.0927248643507 279)" y="279" opacity="1">poet</text><text x="580.4927248643506" style="color:#666666;cursor:default;font-size:11px;fill:#666666;" text-anchor="end" transform="translate(0,0) rotate(-45 580.4927248643506 279)" y="279" opacity="1">twitter</text><text x="641.8927248643506" style="color:#666666;cursor:default;font-size:11px;fill:#666666;" text-anchor="end" transform="translate(0,0) rotate(-45 641.8927248643506 279)" y="279" opacity="1">twitterescaped</text></g><g class="highcharts-axis-labels highcharts-yaxis-labels" data-z-index="7"><text x="41" style="color:#666666;cursor:default;font-size:11px;fill:#666666;" text-anchor="end" transform="translate(0,0)" y="268" opacity="1">0</text><text x="41" style="color:#666666;cursor:default;font-size:11px;fill:#666666;" text-anchor="end" transform="translate(0,0)" y="200" opacity="1">1</text><text x="41" style="color:#666666;cursor:default;font-size:11px;fill:#666666;" text-anchor="end" transform="translate(0,0)" y="133" opacity="1">2</text><text x="41" style="color:#666666;cursor:default;font-size:11px;fill:#666666;" text-anchor="end" transform="translate(0,0)" y="66" opacity="1">3</text></g></svg>